<svg xmlns="http://www.w3.org/2000/svg" viewBox="0 0 48 48" id="Code">
  <path fill-rule="evenodd" d="M24 0A24 24 0 0 0 0 24a24 24 0 0 0 24 24 24 24 0 0 0 24-24A24 24 0 0 0 24 0zM10.5 11h25a.5.5 0 0 1 .5.5v14.527a1.57 1.57 0 0 0-.96.348c-.006-.049-.03-.09-.04-.139V16H11v17h3.75v1H10.5a.5.5 0 0 1-.5-.5v-22a.5.5 0 0 1 .5-.5zm.5 1v3h24v-3H11zm1.5 1a.5.5 0 0 1 .5.5.5.5 0 0 1-.5.5.5.5 0 0 1-.5-.5.5.5 0 0 1 .5-.5zm2 0a.5.5 0 0 1 .5.5.5.5 0 0 1-.5.5.5.5 0 0 1-.5-.5.5.5 0 0 1 .5-.5zm2 0a.5.5 0 0 1 .5.5.5.5 0 0 1-.5.5.5.5 0 0 1-.5-.5.5.5 0 0 1 .5-.5zm9.02 4.998a.5.5 0 0 1 .4.772l-4.992 7.988a.5.5 0 1 1-.848-.53l4.992-7.988a.5.5 0 0 1 .4-.24.5.5 0 0 1 .048 0v-.002zm-7.036 1a.5.5 0 0 1 .364.86l-2.641 2.64 2.64 2.643a.5.5 0 1 1-.706.707l-2.955-2.957a.5.5 0 0 1-.178-.479.5.5 0 0 1 .002-.016.5.5 0 0 1 .004-.019.5.5 0 0 1 .006-.022.5.5 0 0 1 .007-.021.5.5 0 0 1 .01-.027.5.5 0 0 1 .012-.024.5.5 0 0 1 .006-.013.5.5 0 0 0 .002 0 .5.5 0 0 1 .02-.034.5.5 0 0 1 .1-.119l2.964-2.965a.5.5 0 0 1 .343-.152v-.002zM27.5 19a.5.5 0 0 1 .36.154l2.986 2.989h.002a.5.5 0 0 1-.028.744l-2.96 2.963a.5.5 0 1 1-.708-.707l2.641-2.643-2.64-2.64A.5.5 0 0 1 27.5 19zm3.908 7h2.184a.5.5 0 0 1 .5.5v.895c.31.096.607.218.894.369l.631-.63a.5.5 0 0 1 .707 0l1.543 1.542a.5.5 0 0 1 0 .707l-.629.629c.15.288.273.587.37.898h.892a.5.5 0 0 1 .5.5v2.182a.5.5 0 0 1-.5.5h-.89c-.097.31-.223.608-.374.896l.631.631a.5.5 0 0 1 0 .707l-1.543 1.541a.5.5 0 0 1-.707 0l-.629-.627c-.288.15-.586.271-.896.367v.893a.5.5 0 0 1-.5.5h-2.184a.5.5 0 0 1-.5-.5v-.893a5.382 5.382 0 0 1-.894-.369l-.631.63a.5.5 0 0 1-.707 0l-1.543-1.542a.5.5 0 0 1 0-.707l.629-.629a5.377 5.377 0 0 1-.37-.898H26.5a.5.5 0 0 1-.5-.5V31.41a.5.5 0 0 1 .5-.5h.89c.097-.31.223-.608.374-.896l-.631-.631a.5.5 0 0 1 0-.707l1.543-1.541a.5.5 0 0 1 .707 0l.629.627c.288-.15.586-.271.896-.367V26.5a.5.5 0 0 1 .5-.5zm.5 1v.723a.5.5 0 0 1-.388.484c-.484.109-.947.3-1.368.563a.5.5 0 0 1-.617-.07l-.506-.505-.836.834.508.508a.5.5 0 0 1 .07.62c-.263.419-.454.881-.564 1.364a.5.5 0 0 1-.488.39H27v1.18h.72a.5.5 0 0 1 .489.391c.109.484.298.945.56 1.366a.5.5 0 0 1-.07.619l-.506.506.836.834.508-.506a.5.5 0 0 1 .62-.07 4.4 4.4 0 0 0 1.363.564.5.5 0 0 1 .388.486V38h1.184v-.72a.5.5 0 0 1 .388-.487 4.417 4.417 0 0 0 1.368-.56.5.5 0 0 1 .617.07l.506.504.836-.834-.508-.508a.5.5 0 0 1-.07-.62c.263-.42.454-.881.564-1.365a.5.5 0 0 1 .488-.388H38V31.91h-.72a.5.5 0 0 1-.489-.39 4.413 4.413 0 0 0-.56-1.368.5.5 0 0 1 .07-.617l.506-.506-.836-.834-.508.506a.5.5 0 0 1-.62.07 4.403 4.403 0 0 0-1.363-.564.5.5 0 0 1-.388-.488V27h-1.184zm-12.283 1.73h1.5a.5.5 0 0 1 .5.5v.51c.145.05.284.109.422.176l.361-.361a.5.5 0 0 1 .707 0l1.06 1.06a.5.5 0 0 1 0 .707l-.36.362c.066.137.124.277.173.421h.512a.5.5 0 0 1 .5.5v1.5a.5.5 0 0 1-.5.5h-.51c-.05.145-.107.285-.174.422l.36.36a.5.5 0 0 1 0 .709l-1.06 1.06a.5.5 0 0 1-.708 0l-.361-.361a3.95 3.95 0 0 1-.422.174v.511a.5.5 0 0 1-.5.5h-1.5a.5.5 0 0 1-.5-.5v-.511a3.786 3.786 0 0 1-.422-.174l-.361.361a.5.5 0 0 1-.707 0l-1.06-1.06a.5.5 0 0 1 0-.707l.359-.362a3.853 3.853 0 0 1-.172-.422h-.512a.5.5 0 0 1-.5-.5v-1.5a.5.5 0 0 1 .5-.5h.51c.05-.144.109-.284.176-.421l-.362-.362a.5.5 0 0 1 0-.707l1.06-1.06a.5.5 0 0 1 .708 0l.361.36c.137-.067.278-.123.422-.173v-.512a.5.5 0 0 1 .5-.5zm.5 1v.338a.5.5 0 0 1-.39.487c-.316.07-.617.194-.891.365a.5.5 0 0 1-.62-.07l-.236-.237-.353.354.238.238a.5.5 0 0 1 .07.62 2.879 2.879 0 0 0-.367.89.5.5 0 0 1-.488.389h-.338v.5h.34a.5.5 0 0 1 .486.39c.071.316.196.617.367.89a.5.5 0 0 1-.07.618l-.238.238.353.354.239-.239a.5.5 0 0 1 .619-.068c.273.172.575.295.89.367a.5.5 0 0 1 .389.489v.337h.5v-.34a.5.5 0 0 1 .39-.488c.316-.07.617-.194.891-.365a.5.5 0 0 1 .62.07l.236.237.353-.352-.238-.238a.5.5 0 0 1-.07-.621c.172-.274.295-.574.367-.889a.5.5 0 0 1 .488-.389H24v-.5h-.34a.5.5 0 0 1-.486-.39 2.877 2.877 0 0 0-.367-.89.5.5 0 0 1 .07-.62l.238-.236-.353-.354-.239.239a.5.5 0 0 1-.619.07 2.885 2.885 0 0 0-.89-.37.5.5 0 0 1-.389-.486v-.338h-.5zm12.375.272A2.51 2.51 0 0 1 35 32.5a2.51 2.51 0 0 1-2.5 2.5 2.51 2.51 0 0 1-2.5-2.5 2.51 2.51 0 0 1 2.5-2.498zm0 1c-.826 0-1.5.672-1.5 1.498s.674 1.5 1.5 1.5 1.5-.674 1.5-1.5-.674-1.498-1.5-1.498zm-12.125.707c.903 0 1.646.743 1.646 1.646 0 .903-.743 1.645-1.646 1.645a1.653 1.653 0 0 1-1.646-1.645c0-.903.743-1.646 1.646-1.646zm0 1A.645.645 0 1 0 20.373 34a.645.645 0 0 0 .002-1.291z" fill="#8f0909" class="color000000 svgShape"></path>
</svg>
